<svg fill="none" height="20" viewBox="0 0 20 20" width="20" xmlns="http://www.w3.org/2000/svg">
<path clip-rule="evenodd" d="m12 6c0-1.65685 1.3431-3 3-3s3 1.34315 3 3-1.3431 3-3 3h-11c-.55228 0-1 
.44772-1 1 0 .5523.44772 1 1 1h11c2.7614 0 5-2.23858 5-5s-2.2386-5-5-5-5 2.23858-5 5c0 .55228.4477 1 
1 1s1-.44772 1-1zm-11 6c-.552285 0-1 .4477-1 1s.447715 1 1 1h10c1.1046 0 2 .8954 2 2s-.8954 2-2 2c-.9337 
0-1.80292-.6139-2.05716-1.3332-.18405-.5208-.75537-.7937-1.27609-.6096-.52071.184-.79364.7553-.60959 
1.276.56943 1.6111 2.26408 2.6668 3.94284 2.6668 2.2091 0 4-1.7909 4-4s-1.7909-4-4-4z" fill="#04ADBF" 
fill-rule="evenodd"/></svg>